<?xml version="1.0" encoding="utf-8"?>
<!-- Generator: Adobe Illustrator 20.1.0, SVG Export Plug-In . SVG Version: 6.00 Build 0)  -->
<svg version="1.1" id="Layer_1" xmlns="http://www.w3.org/2000/svg" xmlns:xlink="http://www.w3.org/1999/xlink" x="0px" y="0px"
	 viewBox="0 0 30 29" enable-background="new 0 0 30 29" xml:space="preserve">
<title>1st-tab</title>
<g id="Layer_2">
	<g id="Layer_1-2">
		
			<linearGradient id="SVGID_1_" gradientUnits="userSpaceOnUse" x1="0.1" y1="3.5" x2="14.85" y2="3.5" gradientTransform="matrix(1 0 0 -1 0 30)">
			<stop  offset="0" style="stop-color:#1CEA91"/>
			<stop  offset="0.29" style="stop-color:#1EEA90"/>
			<stop  offset="0.46" style="stop-color:#27EB8E"/>
			<stop  offset="0.6" style="stop-color:#35ED8A"/>
			<stop  offset="0.72" style="stop-color:#49EF85"/>
			<stop  offset="0.83" style="stop-color:#62F27E"/>
			<stop  offset="0.93" style="stop-color:#81F575"/>
			<stop  offset="1" style="stop-color:#9DF86E"/>
		</linearGradient>
		<path fill="url(#SVGID_1_)" d="M12.4,24H2.6c-1.4,0-2.5,1.1-2.5,2.5S1.2,29,2.6,29h9.8c1.4,0,2.5-1.1,2.5-2.5S13.8,24,12.4,24z
			 M12.4,27.3H2.6c-0.5,0-0.8-0.4-0.8-0.8c0-0.5,0.4-0.8,0.8-0.8c0,0,0,0,0,0h9.8c0.5,0,0.8,0.4,0.8,0.8
			C13.2,26.9,12.8,27.3,12.4,27.3z"/>
		
			<linearGradient id="SVGID_2_" gradientUnits="userSpaceOnUse" x1="-1.302564e-02" y1="16.0912" x2="30.037" y2="16.0912" gradientTransform="matrix(1 0 0 -1 0 30)">
			<stop  offset="0" style="stop-color:#1CEA91"/>
			<stop  offset="0.29" style="stop-color:#1EEA90"/>
			<stop  offset="0.46" style="stop-color:#27EB8E"/>
			<stop  offset="0.6" style="stop-color:#35ED8A"/>
			<stop  offset="0.72" style="stop-color:#49EF85"/>
			<stop  offset="0.83" style="stop-color:#62F27E"/>
			<stop  offset="0.93" style="stop-color:#81F575"/>
			<stop  offset="1" style="stop-color:#9DF86E"/>
		</linearGradient>
		<path fill="url(#SVGID_2_)" d="M29.2,22.5c-0.6-0.5-1.3-0.7-2.1-0.5c-0.1-0.4-0.3-0.8-0.6-1.1c-1.4-1.5-2.9-3-4.4-4.4
			c-1.1-0.9-2.3-1.7-3.6-2.4c-0.4-0.2-0.8-0.4-1.2-0.4c0-0.8-0.3-1.5-0.9-2c-0.2-0.2-0.5-0.3-0.7-0.4c0.7-0.8,0.8-1.9,0.4-2.9l0.9-1
			l0.6,0.5c0.4,0.3,0.9,0.2,1.2-0.1s0.2-0.9-0.1-1.2l-7.4-6.4c-0.3-0.3-0.9-0.3-1.2,0.1s-0.3,0.9,0.1,1.2l0.6,0.5l-0.9,1
			C8.8,2.6,7.7,3,7,3.8L3.2,8.2c-0.7,0.8-0.9,2-0.4,2.9l-0.9,1l-0.6-0.5c-0.4-0.3-0.9-0.2-1.2,0.1c-0.3,0.4-0.2,0.9,0.1,1.2l7.4,6.4
			c0.3,0.3,0.9,0.3,1.2-0.1c0.3-0.3,0.3-0.9-0.1-1.2l-0.6-0.5l0.9-1c1,0.3,2.1,0,2.8-0.8c0.1,0.2,0.3,0.5,0.5,0.6
			c0.6,0.5,1.3,0.7,2.1,0.6c0.1,0.4,0.3,0.8,0.6,1.1c1.4,1.5,2.9,3,4.4,4.4c1.1,0.9,2.3,1.7,3.6,2.4c0.4,0.2,0.8,0.4,1.2,0.4
			c-0.1,1.4,1,2.5,2.4,2.6c0.8,0,1.5-0.3,2-0.9l0.8-0.9C30.4,25,30.3,23.5,29.2,22.5C29.2,22.6,29.2,22.5,29.2,22.5z M15.8,6.3
			l-0.7,0.8l-3.8-3.3L12,3L15.8,6.3z M3.2,13.3l0.7-0.8l3.8,3.3L7,16.5L3.2,13.3z M9.2,14.8l-4.6-4c-0.5-0.4-0.5-1.1-0.1-1.6
			c0,0,0,0,0,0l3.8-4.4c0.4-0.5,1.1-0.5,1.6-0.1c0,0,0,0,0,0l4.5,3.9c0.5,0.4,0.5,1.1,0.1,1.6c0,0,0,0,0,0l-3.8,4.4
			C10.3,15.1,9.6,15.1,9.2,14.8C9.1,14.7,9.1,14.7,9.2,14.8L9.2,14.8z M13.6,15.1c-0.3-0.3-0.4-0.8-0.1-1.2l0.8-0.9
			c0.3-0.3,0.8-0.4,1.2-0.1s0.4,0.8,0.1,1.2l0,0l-0.4,0.4l0,0l-0.4,0.4C14.5,15.4,13.9,15.4,13.6,15.1
			C13.6,15.1,13.6,15.1,13.6,15.1L13.6,15.1z M20.6,21.1c-1.5-1.3-2.9-2.7-4.3-4.2c-0.1-0.2-0.2-0.4-0.2-0.6c0-0.2,0.1-0.4,0.2-0.6
			c0.2-0.2,0.4-0.3,0.6-0.3c0.2,0,0.5,0,0.7,0.1c1.7,1.1,3.3,2.3,4.8,3.6c1.1,0.9,2,1.8,2.9,2.9c0.1,0.2,0.2,0.4,0.2,0.6
			c0,0.2-0.1,0.4-0.2,0.6l0,0c-0.2,0.2-0.4,0.3-0.6,0.3c-0.2,0-0.5,0-0.7-0.1C22.9,22.8,21.7,22,20.6,21.1L20.6,21.1z M28.2,25
			l-0.8,0.9c-0.3,0.3-0.8,0.4-1.2,0.1c-0.3-0.3-0.4-0.8-0.1-1.2l0.8-0.9c0.3-0.3,0.8-0.4,1.2-0.1C28.5,24.1,28.5,24.7,28.2,25
			L28.2,25z"/>
		
			<linearGradient id="SVGID_3_" gradientUnits="userSpaceOnUse" x1="2.86" y1="10.68" x2="6.69" y2="10.68" gradientTransform="matrix(1 0 0 -1 0 30)">
			<stop  offset="0" style="stop-color:#1CEA91"/>
			<stop  offset="0.29" style="stop-color:#1EEA90"/>
			<stop  offset="0.46" style="stop-color:#27EB8E"/>
			<stop  offset="0.6" style="stop-color:#35ED8A"/>
			<stop  offset="0.72" style="stop-color:#49EF85"/>
			<stop  offset="0.83" style="stop-color:#62F27E"/>
			<stop  offset="0.93" style="stop-color:#81F575"/>
			<stop  offset="1" style="stop-color:#9DF86E"/>
		</linearGradient>
		<path fill="url(#SVGID_3_)" d="M5.4,20.8c0.4,0.3,0.9,0.2,1.2-0.2s0.2-0.9-0.2-1.2l-2.2-1.6C3.8,17.6,3.3,17.7,3,18
			s-0.2,0.9,0.2,1.2L5.4,20.8z"/>
		
			<linearGradient id="SVGID_4_" gradientUnits="userSpaceOnUse" x1="1.72" y1="7.835" x2="6.07" y2="7.835" gradientTransform="matrix(1 0 0 -1 0 30)">
			<stop  offset="0" style="stop-color:#1CEA91"/>
			<stop  offset="0.29" style="stop-color:#1EEA90"/>
			<stop  offset="0.46" style="stop-color:#27EB8E"/>
			<stop  offset="0.6" style="stop-color:#35ED8A"/>
			<stop  offset="0.72" style="stop-color:#49EF85"/>
			<stop  offset="0.83" style="stop-color:#62F27E"/>
			<stop  offset="0.93" style="stop-color:#81F575"/>
			<stop  offset="1" style="stop-color:#9DF86E"/>
		</linearGradient>
		<path fill="url(#SVGID_4_)" d="M1.7,22.2c0,0.5,0.4,0.8,0.8,0.8h2.7c0.5,0,0.8-0.4,0.8-0.8c0-0.5-0.4-0.8-0.8-0.8H2.5
			C2.1,21.3,1.7,21.7,1.7,22.2z"/>
	</g>
</g>
</svg>
