<svg xmlns="http://www.w3.org/2000/svg" viewBox="0 0 24.71 25.27"><defs><style>.cls-1{fill:#3b3f44;}</style></defs><title>2nd-tab</title><g id="Layer_2" data-name="Layer 2"><g id="Layer_1-2" data-name="Layer 1"><path class="cls-1" d="M21.79,1.67H20.12a.7.7,0,0,0,0,1.39h1.67a1.52,1.52,0,0,1,1.53,1.53V9.44H1.39V4.59A1.52,1.52,0,0,1,2.93,3.06H4.58a.66.66,0,0,0,.49-.21.7.7,0,0,0,.21-.49.7.7,0,0,0-.21-.49.66.66,0,0,0-.49-.21H2.93A2.93,2.93,0,0,0,0,4.59V22.34a2.93,2.93,0,0,0,2.93,2.92H21.79a2.93,2.93,0,0,0,2.93-2.92V4.59A2.93,2.93,0,0,0,21.79,1.67Zm1.53,9.16V22.34a1.52,1.52,0,0,1-1.53,1.53H2.93a1.52,1.52,0,0,1-1.53-1.53V10.83Z"/><path class="cls-1" d="M4.45,6.25A2.36,2.36,0,1,0,7.51,4V.7A.7.7,0,1,0,6.12.7V4A2.36,2.36,0,0,0,4.45,6.25Zm2.36,1a1,1,0,1,1,1-1A1,1,0,0,1,6.81,7.22Z"/><path class="cls-1" d="M15.55,6.25A2.36,2.36,0,1,0,18.61,4V.7a.7.7,0,1,0-1.39,0V4A2.36,2.36,0,0,0,15.55,6.25Zm1.39,0a1,1,0,1,1,1,1A1,1,0,0,1,16.95,6.25Z"/><path class="cls-1" d="M9,3.06h6.66a.7.7,0,1,0,0-1.39H9A.7.7,0,1,0,9,3.06Z"/><rect class="cls-1" x="16.69" y="19.74" width="1.42" height="1.42" rx="0.38" ry="0.38"/><rect class="cls-1" x="6.49" y="13.54" width="1.42" height="1.42" rx="0.39" ry="0.39"/><rect class="cls-1" x="16.69" y="13.54" width="3.7" height="1.42" rx="0.42" ry="0.42"/><rect class="cls-1" x="10.62" y="13.54" width="3.7" height="1.42" rx="0.42" ry="0.42"/><rect class="cls-1" x="16.69" y="16.64" width="3.7" height="1.42" rx="0.42" ry="0.42"/><rect class="cls-1" x="10.62" y="16.64" width="3.7" height="1.42" rx="0.42" ry="0.42"/><rect class="cls-1" x="10.62" y="19.74" width="3.7" height="1.42" rx="0.42" ry="0.42"/><rect class="cls-1" x="4.1" y="16.64" width="3.7" height="1.42" rx="0.42" ry="0.42"/><rect class="cls-1" x="4.1" y="19.74" width="3.7" height="1.42" rx="0.42" ry="0.42"/></g></g></svg>