<svg xmlns="http://www.w3.org/2000/svg" viewBox="0 0 24.27 24.27"><defs><style>.cls-1{fill:#3b3f44;}</style></defs><title>4th-tab</title><g id="Layer_2" data-name="Layer 2"><g id="Layer_1-2" data-name="Layer 1"><path class="cls-1" d="M23.6,12.28h-.84V7.44a.67.67,0,0,0-.67-.67h-2V.67A.67.67,0,0,0,19.39,0H4.06A4.06,4.06,0,0,0,0,4.06H0V20.21a4.06,4.06,0,0,0,4.06,4.06h18a.67.67,0,0,0,.67-.67V18.68h.84a.67.67,0,0,0,.67-.67V13A.67.67,0,0,0,23.6,12.28ZM4.06,1.35H18.71v2H4.25a.67.67,0,0,0,0,1.35H18.71v2H4.06a2.71,2.71,0,0,1,0-5.42ZM21.41,22.92H4.06a2.71,2.71,0,0,1-2.71-2.71V16.12H3.54a.67.67,0,0,0,0-1.35H1.35V12.42H4.79a.67.67,0,0,0,0-1.35H1.35v-4a4,4,0,0,0,2.71,1H21.4v4.16H19.72a3.21,3.21,0,1,0,0,6.41H21.4v4.23Zm1.51-5.58h-3.2a1.85,1.85,0,0,1,0-3.71h3.2Z"/><path class="cls-1" d="M18.71,15.48a.67.67,0,0,0,.67.67H20a.67.67,0,0,0,0-1.35h-.62A.68.68,0,0,0,18.71,15.48Z"/><rect class="cls-1" x="6.58" y="11.04" width="1.42" height="1.42" rx="0.38" ry="0.38"/><rect class="cls-1" x="9.08" y="11.04" width="1.42" height="1.42" rx="0.39" ry="0.39"/></g></g></svg>