<svg xmlns="http://www.w3.org/2000/svg" viewBox="0 0 25.66 25.66"><defs><style>.cls-1{fill:#3b3f44;}</style></defs><title>5th-tab</title><g id="Layer_2" data-name="Layer 2"><g id="Layer_1-2" data-name="Layer 1"><path class="cls-1" d="M25.66,13.7V12a1.75,1.75,0,0,0-1.75-1.75h-1L22.84,10a10.41,10.41,0,0,0-.94-2.24l-.1-.18.66-.74a1.78,1.78,0,0,0,0-2.48L21.25,3.12a1.81,1.81,0,0,0-2.47,0l-5,5a.72.72,0,0,0-.21.68.77.77,0,0,0,.45.5l.17.06a3.59,3.59,0,0,1,2.17,2.41A3.73,3.73,0,0,1,16,14.6a3.6,3.6,0,0,1-2.19,1.72A3.71,3.71,0,0,1,11,16a3.64,3.64,0,0,1-1.42-4.89.72.72,0,0,0-.2-.94.8.8,0,0,0-1.06.28,5.22,5.22,0,0,0-.42,3.79,5,5,0,0,0,2.4,3.09,5.18,5.18,0,0,0,3.89.47,5,5,0,0,0,3.09-2.4,5.16,5.16,0,0,0,.47-3.89,4.87,4.87,0,0,0-1.93-2.78l-.28-.2L20,4l1.64,1.64L20.35,6.94a.76.76,0,0,0-.08.92,9.17,9.17,0,0,1,1.32,3.22.71.71,0,0,0,.71.58h1.9V14h-1.9a.73.73,0,0,0-.7.58,8.23,8.23,0,0,1-1.33,3.23.69.69,0,0,0,.08.91L21.67,20,20,21.67l-1.32-1.31a.76.76,0,0,0-.92-.08,9.18,9.18,0,0,1-3.22,1.32.71.71,0,0,0-.58.7v1.9H11.69V22.3a.73.73,0,0,0-.58-.7,8.25,8.25,0,0,1-3.23-1.33.68.68,0,0,0-.91.08L5.62,21.67,4,20,5.3,18.72a.76.76,0,0,0,.08-.92,9.18,9.18,0,0,1-1.32-3.22A.71.71,0,0,0,3.35,14H1.46V11.69h1.9a.73.73,0,0,0,.7-.58A8.24,8.24,0,0,1,5.39,7.88.69.69,0,0,0,5.3,7L4,5.62,5.63,4,6.94,5.3a.76.76,0,0,0,.92.08,9.18,9.18,0,0,1,3.22-1.32.71.71,0,0,0,.58-.7V1.46H14v1.9a.71.71,0,0,0,.73.7.74.74,0,0,0,.73-.73V1.75A1.75,1.75,0,0,0,13.7,0H12a1.75,1.75,0,0,0-1.75,1.75v1L10,2.82a10.39,10.39,0,0,0-2.24.94l-.19.11-.71-.71a1.81,1.81,0,0,0-2.47,0L3.15,4.38a1.77,1.77,0,0,0,0,2.47l.71.71-.11.19A10.33,10.33,0,0,0,2.82,10l-.06.21h-1A1.75,1.75,0,0,0,0,12V13.7a1.75,1.75,0,0,0,1.75,1.75h1l.06.21a10.33,10.33,0,0,0,.94,2.24l.11.19-.71.71a1.77,1.77,0,0,0,0,2.47l1.22,1.22a1.77,1.77,0,0,0,2.47,0l.71-.71.19.11a10.39,10.39,0,0,0,2.24.94l.21.06v1A1.75,1.75,0,0,0,12,25.66H13.7a1.75,1.75,0,0,0,1.75-1.75v-1l.21-.06a10.39,10.39,0,0,0,2.24-.94l.19-.11.71.71a1.81,1.81,0,0,0,2.47,0l1.22-1.22a1.77,1.77,0,0,0,0-2.47l-.71-.71.11-.19a10.41,10.41,0,0,0,.94-2.24l.06-.21h1A1.75,1.75,0,0,0,25.66,13.7Z"/><rect class="cls-1" x="10.15" y="8.28" width="1.47" height="1.47" rx="0.39" ry="0.39" transform="translate(-3.05 6.65) rotate(-30)"/></g></g></svg>