<svg xmlns="http://www.w3.org/2000/svg" viewBox="0 0 17.45 16.74"><defs><style>.cls-1{fill:#3b3f44;}</style></defs><title>filters</title><g id="Layer_2" data-name="Layer 2"><g id="Layer_1-2" data-name="Layer 1"><path id="_Compound_Path_" data-name="&lt;Compound Path&gt;" class="cls-1" d="M8.42,7.89h-8a.46.46,0,0,0,0,.92h8a2.44,2.44,0,0,0,4.79,0h3.56a.46.46,0,0,0,0-.92H13.21a2.44,2.44,0,0,0-4.79,0Zm3.91.46a1.52,1.52,0,1,1-1.52-1.52A1.52,1.52,0,0,1,12.34,8.35Zm-8,5.49H.46a.46.46,0,0,0,0,.92H4.35a2.44,2.44,0,0,0,4.79,0h7.45a.46.46,0,0,0,0-.92H9.13a2.44,2.44,0,0,0-4.79,0Zm3.91.46a1.52,1.52,0,0,1-3,0v0a1.52,1.52,0,0,1,3,0ZM6.74,0A2.44,2.44,0,0,0,4.35,2H.68a.46.46,0,0,0,0,.92H4.35a2.44,2.44,0,0,0,4.79,0H17A.46.46,0,1,0,17,2H9.13A2.44,2.44,0,0,0,6.74,0ZM8.26,2.44A1.52,1.52,0,1,1,6.74.92,1.52,1.52,0,0,1,8.26,2.44Z"/></g></g></svg>