<?xml version="1.0" encoding="utf-8"?>
<!-- Generator: Adobe Illustrator 20.1.0, SVG Export Plug-In . SVG Version: 6.00 Build 0)  -->
<svg version="1.1" id="Layer_1" xmlns="http://www.w3.org/2000/svg" xmlns:xlink="http://www.w3.org/1999/xlink" x="0px" y="0px"
	 viewBox="0 0 30.6 22.5" enable-background="new 0 0 30.6 22.5" xml:space="preserve">
<title>ranking-colour</title>
<g id="Layer_2">
	<g id="Layer_1-2">
		
			<linearGradient id="SVGID_1_" gradientUnits="userSpaceOnUse" x1="0" y1="12.775" x2="30.5765" y2="12.775" gradientTransform="matrix(1 0 0 -1 0 24)">
			<stop  offset="0" style="stop-color:#1CEA91"/>
			<stop  offset="0.29" style="stop-color:#1EEA90"/>
			<stop  offset="0.46" style="stop-color:#27EB8E"/>
			<stop  offset="0.6" style="stop-color:#35ED8A"/>
			<stop  offset="0.72" style="stop-color:#49EF85"/>
			<stop  offset="0.83" style="stop-color:#62F27E"/>
			<stop  offset="0.93" style="stop-color:#81F575"/>
			<stop  offset="1" style="stop-color:#9DF86E"/>
		</linearGradient>
		<path fill="url(#SVGID_1_)" d="M28.2,12.4h-6.3V2.7c0-1.5-1.2-2.7-2.7-2.7h-7.9C9.8,0,8.6,1.2,8.6,2.7v5.6H2.7C1.2,8.3,0,9.5,0,11
			v8.7c0,1.5,1.2,2.7,2.7,2.7h25.5c1.4-0.1,2.4-1.3,2.3-2.7v-4.6C30.7,13.8,29.6,12.5,28.2,12.4z M1.4,19.7v-4.6h2.6
			c0.4,0,0.7-0.3,0.7-0.7s-0.3-0.7-0.7-0.7H1.3v-1.3h4.6c0.4,0,0.7-0.3,0.7-0.7s-0.3-0.7-0.7-0.7H1.3V11c0-0.8,0.6-1.4,1.4-1.4
			c0,0,0,0,0,0h5.9v11.5H2.7C2,21.1,1.3,20.5,1.4,19.7C1.3,19.7,1.3,19.7,1.4,19.7L1.4,19.7z M29.2,19.7c0,0.7-0.5,1.4-1,1.4H10V2.7
			c0-0.7,0.6-1.4,1.3-1.4h7.9c0.7,0,1.3,0.6,1.3,1.4v14.2c0,0.4,0.3,0.7,0.7,0.7s0.7-0.3,0.7-0.7v-3.1h6.3c0.5,0,1,0.6,1,1.4
			L29.2,19.7z M22,19v0.5c0,0.2-0.2,0.5-0.4,0.5h0H21c-0.2,0-0.5-0.2-0.5-0.4v0V19c0-0.2,0.2-0.5,0.4-0.5h0h0.5
			C21.8,18.5,22,18.7,22,19C22,19,22,19,22,19z"/>
	</g>
</g>
</svg>
