<svg xmlns="http://www.w3.org/2000/svg" viewBox="0 0 10.58 10.14"><defs><style>.cls-1{opacity:0.9;}.cls-2{fill:#36393d;}</style></defs><title>rating</title><g id="Layer_2" data-name="Layer 2"><g id="Layer_1-2" data-name="Layer 1"><g class="cls-1"><path class="cls-2" d="M9.39,3H7.11L6.43.83a1.19,1.19,0,0,0-2.27,0L3.48,3H1.25a1.15,1.15,0,0,0-1,.49A1.19,1.19,0,0,0,.5,5.12L2.35,6.43,1.63,8.58a1.19,1.19,0,0,0,1,1.55h.18a1.17,1.17,0,0,0,.7-.23L5.29,8.56,7.12,9.91a1.22,1.22,0,0,0,1.09.17A1.19,1.19,0,0,0,9,8.58L8.1,6,7.47,4.11H9.39a0,0,0,0,1,0,0v0a.31.31,0,0,0-.05.42L9.69,5c0,.07.17.24.35.14l.13-.07a1.07,1.07,0,0,0,.41-.95A1.19,1.19,0,0,0,9.39,3ZM3.56,6.4h0a.57.57,0,0,0-.21-.65L1.14,4.16a0,0,0,0,1,0,0l.07,0H4.94A.57.57,0,1,0,4.94,3H4.67l.57-1.8s0,0,.06,0a0,0,0,0,1,0,0L7,6.39l.85,2.55s0,0,0,.05H7.8L5.63,7.4A.58.58,0,0,0,5,7.4L2.79,9H2.73V9h0Z"/><path class="cls-2" d="M8.91,4.7a.58.58,0,0,0-.43.1l-.05,0a.57.57,0,0,0-.13.8.58.58,0,0,0,.8.13l.06,0a.57.57,0,0,0,.13-.8A.57.57,0,0,0,8.91,4.7Z"/></g></g></g></svg>