<?xml version="1.0" encoding="utf-8"?>
<!-- Generator: Adobe Illustrator 20.1.0, SVG Export Plug-In . SVG Version: 6.00 Build 0)  -->
<svg version="1.1" id="Layer_1" xmlns="http://www.w3.org/2000/svg" xmlns:xlink="http://www.w3.org/1999/xlink" x="0px" y="0px"
	 viewBox="0 0 27.3 26.1" enable-background="new 0 0 27.3 26.1" xml:space="preserve">
<title>rating-colour</title>
<g id="Layer_2">
	<g id="Layer_1-2">
		
			<linearGradient id="SVGID_1_" gradientUnits="userSpaceOnUse" x1="-1.484150e-02" y1="14.9647" x2="27.3004" y2="14.9647" gradientTransform="matrix(1 0 0 -1 0 28)">
			<stop  offset="0" style="stop-color:#1CEA91"/>
			<stop  offset="0.29" style="stop-color:#1EEA90"/>
			<stop  offset="0.46" style="stop-color:#27EB8E"/>
			<stop  offset="0.6" style="stop-color:#35ED8A"/>
			<stop  offset="0.72" style="stop-color:#49EF85"/>
			<stop  offset="0.83" style="stop-color:#62F27E"/>
			<stop  offset="0.93" style="stop-color:#81F575"/>
			<stop  offset="1" style="stop-color:#9DF86E"/>
		</linearGradient>
		<path fill="url(#SVGID_1_)" d="M23.2,13.8c0.2,0.3,0.2,0.8-0.2,1l-0.7,0.5c-0.1,0.1-0.3,0.1-0.4,0.1c-0.2,0-0.5-0.1-0.6-0.3
			c-0.2-0.3-0.2-0.8,0.2-1l0.7-0.5c0.2-0.1,0.3-0.2,0.5-0.1C22.9,13.6,23.1,13.7,23.2,13.8z M27.3,10.5c0,0.8-0.4,1.5-1,2l-1.6,1.2
			l-0.8-1.2l1.6-1.2c0.4-0.4,0.5-1,0.1-1.4c-0.2-0.2-0.4-0.3-0.7-0.3h-6.4l2.1,6.4l2.3,7c0.4,1.2-0.3,2.6-1.5,3
			c-0.8,0.2-1.6,0.1-2.2-0.4l-5.5-4l-5.5,4c-0.4,0.3-0.9,0.5-1.4,0.5H6.4c-0.6-0.1-1.2-0.4-1.6-1c-0.5-0.6-0.6-1.5-0.3-2.2l2.2-6.5
			l-5.6-4c-1.1-0.8-1.3-2.3-0.6-3.4c0.5-0.7,1.3-1.1,2.1-1h6.7l2.1-6.4c0.4-1.3,1.8-2,3-1.6c0.8,0.2,1.4,0.8,1.6,1.6l2,6.5h6.9
			C26.2,8.1,27.3,9.2,27.3,10.5z M5.9,24.3c0.3,0.4,0.9,0.5,1.4,0.2l5.9-4.4c0.3-0.2,0.6-0.2,0.9,0l5.9,4.4c0.3,0.2,0.6,0.2,0.9,0.1
			c0.2-0.1,0.4-0.3,0.5-0.5c0.1-0.2,0.1-0.5,0-0.7l-2.3-7l-2.3-7.3l-2.2-7c-0.1-0.3-0.3-0.5-0.6-0.6c-0.5-0.1-1,0.1-1.2,0.6l-1.9,6
			h2.4c0.4,0,0.7,0.3,0.7,0.7s-0.3,0.7-0.7,0.7H2.5c-0.3,0-0.6,0.1-0.8,0.4c-0.3,0.4-0.2,1,0.2,1.4l6,4.3c0.3,0.2,0.4,0.5,0.3,0.8
			l-2.3,7C5.7,23.7,5.7,24,5.9,24.3z"/>
	</g>
</g>
</svg>
