<?xml version="1.0" encoding="utf-8"?>
<!-- Generator: Adobe Illustrator 20.1.0, SVG Export Plug-In . SVG Version: 6.00 Build 0)  -->
<svg version="1.1" id="Layer_1" xmlns="http://www.w3.org/2000/svg" xmlns:xlink="http://www.w3.org/1999/xlink" x="0px" y="0px"
	 viewBox="0 0 27.1 23.6" enable-background="new 0 0 27.1 23.6" xml:space="preserve">
<title>reviews-colour</title>
<g id="Layer_2">
	<g id="Layer_1-2">
		
			<linearGradient id="SVGID_1_" gradientUnits="userSpaceOnUse" x1="0" y1="14.17" x2="27.07" y2="14.17" gradientTransform="matrix(1 0 0 -1 0 26)">
			<stop  offset="0" style="stop-color:#1CEA91"/>
			<stop  offset="0.29" style="stop-color:#1EEA90"/>
			<stop  offset="0.46" style="stop-color:#27EB8E"/>
			<stop  offset="0.6" style="stop-color:#35ED8A"/>
			<stop  offset="0.72" style="stop-color:#49EF85"/>
			<stop  offset="0.83" style="stop-color:#62F27E"/>
			<stop  offset="0.93" style="stop-color:#81F575"/>
			<stop  offset="1" style="stop-color:#9DF86E"/>
		</linearGradient>
		<path fill="url(#SVGID_1_)" d="M10.4,7.6c0-0.4,0.3-0.7,0.7-0.7h8.6c0.4,0,0.7,0.3,0.7,0.7s-0.3,0.7-0.7,0.7h-8.5
			C10.8,8.3,10.4,7.9,10.4,7.6L10.4,7.6z M16.1,18.5h7.7c1.8,0,3.3-1.5,3.3-3.3l0,0v-12c0-1.8-1.5-3.3-3.3-3.3H6.4
			C6,0,5.7,0.3,5.7,0.7S6,1.4,6.4,1.4h17c1.3,0,2.3,1,2.3,2.3c0,0,0,0,0,0v11.1c0,1.3-1,2.3-2.3,2.3c0,0,0,0,0,0h-7.3
			c-0.9,0-1.8,0.3-2.5,0.9l0,0l0,0l-5.5,4c-0.5,0.3-1.1,0.2-1.4-0.3c-0.1-0.2-0.2-0.4-0.2-0.6v-2.1c0-1.1-0.9-2-2-2H3.7
			c-1.3,0-2.3-1-2.3-2.3V4.1c0-0.4-0.3-0.7-0.7-0.7S0,3.7,0,4.1v11.1c0,1.8,1.5,3.3,3.3,3.3c0,0,0,0,0,0h0.9c0.6,0,1,0.4,1,1v1.7
			c0,1.3,1.1,2.4,2.4,2.4c0.5,0,1.1-0.2,1.5-0.5l0,0l0,0l5.4-4C14.9,18.8,15.5,18.5,16.1,18.5L16.1,18.5z M7.7,11.7h6.8
			c0.4,0,0.7-0.3,0.7-0.7s-0.3-0.7-0.7-0.7H7.7C7.3,10.3,7,10.6,7,11S7.3,11.7,7.7,11.7z M17,11.7h0.6c0.2,0,0.4-0.2,0.4-0.4v-0.6
			c0-0.2-0.2-0.4-0.4-0.4H17c-0.2,0-0.4,0.2-0.4,0.4v0.6C16.6,11.5,16.8,11.7,17,11.7L17,11.7z M3.6,1.4h0.6c0.2,0,0.4-0.2,0.4-0.4
			l0,0V0.4C4.6,0.2,4.4,0,4.2,0c0,0,0,0,0,0H3.6C3.4,0,3.2,0.2,3.2,0.4c0,0,0,0,0,0V1C3.2,1.2,3.3,1.4,3.6,1.4
			C3.6,1.4,3.6,1.4,3.6,1.4z"/>
	</g>
</g>
</svg>
