<svg xmlns="http://www.w3.org/2000/svg" viewBox="0 0 19.93 13.55"><defs><style>.cls-1{fill:#3b3f44;}</style></defs><title>sort-by</title><g id="Layer_2" data-name="Layer 2"><g id="Layer_1-2" data-name="Layer 1"><path class="cls-1" d="M12.82,1H.49a.49.49,0,0,1,0-1H12.82a.49.49,0,0,1,0,1Z"/><path class="cls-1" d="M10.29,5.17H.49a.49.49,0,0,1,0-1h9.8a.49.49,0,1,1,0,1Z"/><path class="cls-1" d="M7.76,9.36H.49a.49.49,0,0,1,0-1H7.76a.49.49,0,0,1,0,1Z"/><path class="cls-1" d="M5.23,13.55H.49a.49.49,0,1,1,0-1H5.23a.49.49,0,1,1,0,1Z"/><path class="cls-1" d="M16.18,13.55a.49.49,0,0,1-.35-.14l-3.25-3.25a.49.49,0,1,1,.69-.69l2.41,2.41V.49a.49.49,0,0,1,1,0V13.06a.49.49,0,0,1-.49.49Z"/><path class="cls-1" d="M16.18,13.55a.49.49,0,0,1-.34-.84L19.1,9.56a.49.49,0,1,1,.68.71l-3.26,3.14A.49.49,0,0,1,16.18,13.55Z"/></g></g></svg>