<?xml version="1.0" encoding="utf-8"?>
<!-- Generator: Adobe Illustrator 20.1.0, SVG Export Plug-In . SVG Version: 6.00 Build 0)  -->
<svg version="1.1" id="Layer_1" xmlns="http://www.w3.org/2000/svg" xmlns:xlink="http://www.w3.org/1999/xlink" x="0px" y="0px"
	 viewBox="0 0 24.6 27.3" enable-background="new 0 0 24.6 27.3" xml:space="preserve">
<title>verified-icon</title>
<g id="Layer_2">
	<g id="Layer_1-2">
		<path fill="#191A1C" d="M3.2,0v3.3H0V3.2C0,1.5,1.5,0,3.2,0z"/>
		<path fill="#3B3F44" d="M14.8,22.2c-0.3-0.2-0.7-0.2-1.1,0L5.4,27c-1.5,0.8-2.2-0.2-2.2-0.9V0h13.9c4.1,0,7.5,3.3,7.5,7.4
			c0,0,0,0,0,0v18.7c0,0.5-0.6,1.2-1.6,0.6L14.8,22.2z"/>
		
			<linearGradient id="SVGID_1_" gradientUnits="userSpaceOnUse" x1="8.54" y1="18.25" x2="20.05" y2="18.25" gradientTransform="matrix(1 0 0 -1 0 30)">
			<stop  offset="0" style="stop-color:#1CEA91"/>
			<stop  offset="1" style="stop-color:#E0FF5C"/>
		</linearGradient>
		<polyline fill="none" stroke="url(#SVGID_1_)" stroke-width="2" stroke-linecap="round" stroke-linejoin="round" points="
			9.5,11.7 13.1,15.2 19,8.3 		"/>
	</g>
</g>
</svg>
